<?xml version="1.0" standalone="no"?><!DOCTYPE svg PUBLIC "-//W3C//DTD SVG 1.1//EN" "http://www.w3.org/Graphics/SVG/1.1/DTD/svg11.dtd"><svg class="icon" width="200px" height="200.00px" viewBox="0 0 1024 1024" version="1.1" xmlns="http://www.w3.org/2000/svg"><path fill="#bfbfbf" d="M123.52064 667.99143l344.526782 229.708899 0-205.136409-190.802457-127.396658zM88.051421 585.717469l110.283674-73.717469-110.283674-73.717469 0 147.434938zM556.025711 897.627196l344.526782-229.708899-153.724325-102.824168-190.802457 127.396658 0 205.136409zM512 615.994287l155.406371-103.994287-155.406371-103.994287-155.406371 103.994287zM277.171833 458.832738l190.802457-127.396658 0-205.136409-344.526782 229.708899zM825.664905 512l110.283674 73.717469 0-147.434938zM746.828167 458.832738l153.724325-102.824168-344.526782-229.708899 0 205.136409zM1023.926868 356.00857l0 311.98286q0 23.402371-19.453221 36.566205l-467.901157 311.98286q-11.993715 7.459506-24.57249 7.459506t-24.57249-7.459506l-467.901157-311.98286q-19.453221-13.163834-19.453221-36.566205l0-311.98286q0-23.402371 19.453221-36.566205l467.901157-311.98286q11.993715-7.459506 24.57249-7.459506t24.57249 7.459506l467.901157 311.98286q19.453221 13.163834 19.453221 36.566205z"  /></svg>